<svg version="1.0" xmlns="http://www.w3.org/2000/svg" width="64.000000pt" height="64.000000pt" viewBox="0 0 1024.000000 1024.000000" preserveAspectRatio="xMidYMid meet"><g transform="translate(0.000000,1024.000000) scale(0.100000,-0.100000)" fill="#8174d8" stroke="none"><path d="M2580 7792 c-1416 -1345 -2576 -2448 -2578 -2452 -3 -7 1670 -20 2546 -20 l492 0 0 -2660 0 -2660 2040 0 2040 0 0 2655 0 2655 1561 -7 c1038 -4 1560 -3 1558 4 -4 8 -934 915 -4248 4141 -448 435 -819 792 -825 791 -6 0 -1170 -1101 -2586 -2447z"/></g></svg>